#!OML:ASF X:\für Bonn\!DataBase\2005_08_12_Daniel\c3d\Daniel.ASF
:FULLY-SPECIFIED
:DEGREES
163
root 12.4985 4.08861 0.510144 -705.649 -63.4234 -94.4051
lowerback 69.7932 -5.60591 9.80389
upperback 14.1219 -4.3396 -1.84086
thorax -5.31013 -3.72651 -3.99957
lowerneck 0.0447599 0.501614 -19.3249
upperneck 8.51568 0.867986 -1.42084
head 2.55035 -0.357596 2.61275
rclavicle 2.50469e-014 -3.81667e-014
rhumerus -53.262 -17.248 -74.3214
rradius 11.4971
rwrist 55.3506
rhand -26.8479 -340.881
rfingers 7.12502
rthumb -0.273175 -370.861
lclavicle 2.50469e-014 -3.81667e-014
lhumerus -424.981 49.3097 -328.765
lradius 16.1755
lwrist -47.4233
lhand -71.9581 460.943
lfingers 7.12502
lthumb -43.4418 283.145
rfemur 142.633 -146.548 172.082
rtibia 124.081
rfoot 54.6605 45.496
rtoes 8.36651
lfemur -59.9136 20.6382 -11.904
ltibia 117.732
lfoot 19.0613 -13.8051
ltoes 12.4136
164
root 12.4983 3.97901 0.572874 -705.32 -64.2909 -95.061
lowerback 69.8319 -5.75973 10.0124
upperback 14.1027 -4.38902 -1.89667
thorax -5.32761 -3.74246 -4.12175
lowerneck -0.291996 0.490371 -19.5744
upperneck 8.60162 0.951487 -1.78887
head 2.63005 -0.352748 2.53717
rclavicle 1.42131e-014 -2.22639e-014
rhumerus -54.6623 -20.4341 -70.4489
rradius 10.8913
rwrist 60.1458
rhand -28.0041 -340.153
rfingers 7.12502
rthumb -1.38984 -370.129
lclavicle 1.42131e-014 -2.22639e-014
lhumerus -424.995 49.2057 -328.024
lradius 15.817
lwrist -47.2087
lhand -71.9772 461.54
lfingers 7.12502
lthumb -43.4596 282.542
rfemur 142.006 -146.43 172.717
rtibia 123.567
rfoot 51.5147 45.0671
rtoes 7.90472
lfemur -60.011 21.2097 -12.2295
ltibia 118.087
lfoot 18.0153 -12.2559
ltoes 11.8252
165
root 12.5023 3.8737 0.636281 -704.935 -65.156 -95.7586
lowerback 69.8444 -5.9031 10.2253
upperback 14.0848 -4.42164 -1.93931
thorax -5.34239 -3.75048 -4.23851
lowerneck -0.616376 0.49218 -19.7989
upperneck 8.69165 1.05077 -2.1334
head 2.70762 -0.339786 2.46556
rclavicle -1.97791e-014 -4.13472e-014
rhumerus -56.2806 -23.3663 -66.5443
rradius 10.4233
rwrist 64.9443
rhand -29.0157 -339.397
rfingers 7.12502
rthumb -2.36685 -369.364
lclavicle -1.97791e-014 -4.13472e-014
lhumerus -424.612 48.8594 -326.724
lradius 15.528
lwrist -46.5746
lhand -72.0401 462.093
lfingers 7.12502
lthumb -43.5183 281.967
rfemur 141.614 -145.847 172.594
rtibia 123.501
rfoot 48.7337 44.9075
rtoes 7.41388
lfemur -60.1111 21.7409 -12.5068
ltibia 118.388
lfoot 17.278 -10.7998
ltoes 11.9236
166
root 12.5171 3.77276 0.701975 -704.455 -66.0306 -96.5441
lowerback 69.8554 -6.05466 10.4417
upperback 14.0675 -4.46442 -1.99858
thorax -5.35883 -3.76166 -4.37108
lowerneck -0.990794 0.500077 -19.9905
upperneck 8.78051 1.1727 -2.48623
head 2.79135 -0.316425 2.38729
rclavicle 5.96354e-016 1.27222e-013
rhumerus -58.0372 -25.9007 -62.8575
rradius 10.1071
rwrist 69.5729
rhand -29.8788 -338.6
rfingers 7.12502
rthumb -3.20038 -368.555
lclavicle 5.96354e-016 1.27222e-013
lhumerus -424.242 48.4998 -325.439
lradius 15.2677
lwrist -45.9213
lhand -72.0725 462.073
lfingers 7.12502
lthumb -43.5486 281.976
rfemur 141.243 -145.021 172.121
rtibia 123.791
rfoot 45.8965 45.6605
rtoes 6.44943
lfemur -60.1404 22.2523 -12.7461
ltibia 118.577
lfoot 16.6927 -9.39294
ltoes 11.8616
167
root 12.5386 3.6724 0.769548 -703.838 -66.9523 -97.4372
lowerback 69.8588 -6.17584 10.6445
upperback 14.0296 -4.47792 -2.05211
thorax -5.39773 -3.75889 -4.50326
lowerneck -1.36727 0.511493 -20.1705
upperneck 8.90081 1.30382 -2.83309
head 2.88489 -0.292145 2.30971
rclavicle -1.68967e-014 -6.67916e-014
rhumerus -58.1246 -26.0128 -63.2268
rradius 9.85745
rwrist 70.0081
rhand -30.54 -338.58
rfingers 7.12502
rthumb -3.83895 -368.525
lclavicle -1.68967e-014 -6.67916e-014
lhumerus -423.69 47.9518 -323.814
lradius 15.0804
lwrist -44.9794
lhand -72.1553 461.951
lfingers 7.12502
lthumb -43.6259 282.07
rfemur 140.683 -144.411 171.63
rtibia 124.19
rfoot 43.6605 46.3889
rtoes 5.44929
lfemur -60.1538 22.8358 -12.9656
ltibia 118.704
lfoot 16.2436 -8.06752
ltoes 12.0458
168
root 12.5594 3.57072 0.835001 -703.049 -67.9061 -98.4945
lowerback 69.8449 -6.28631 10.8462
upperback 13.9972 -4.48379 -2.10353
thorax -5.43045 -3.75333 -4.6366
lowerneck -1.72429 0.5402 -20.4075
upperneck 9.00353 1.45333 -3.15008
head 2.96853 -0.259696 2.2499
rclavicle 1.95803e-014 1.90833e-014
rhumerus -58.2206 -26.0356 -63.5332
rradius 9.66789
rwrist 70.5714
rhand -31.0601 -338.464
rfingers 7.12502
rthumb -4.34112 -368.4
lclavicle 1.95803e-014 1.90833e-014
lhumerus -423.094 47.3621 -322.059
lradius 14.9572
lwrist -43.8751
lhand -72.1983 461.464
lfingers 7.12502
lthumb -43.666 282.542
rfemur 139.966 -144.061 171.021
rtibia 124.663
rfoot 42.9443 46.5282
rtoes 5.58616
lfemur -60.1705 23.5051 -13.1312
ltibia 118.812
lfoot 15.9879 -6.97628
ltoes 12.7214
169
root 12.577 3.46697 0.89916 -702.161 -68.9021 -99.6343
lowerback 69.7744 -6.40964 11.0737
upperback 13.9953 -4.4964 -2.1752
thorax -5.43304 -3.74607 -4.80359
lowerneck -2.03096 0.567332 -20.7476
upperneck 9.05483 1.5859 -3.39795
head 3.0288 -0.232261 2.22518
rclavicle 3.26007e-014 3.81667e-014
rhumerus -58.3751 -25.9259 -63.72
rradius 9.56195
rwrist 71.1826
rhand -31.5308 -338.078
rfingers 7.12502
rthumb -4.79568 -368.004
lclavicle 3.26007e-014 3.81667e-014
lhumerus -422.593 46.8286 -320.392
lradius 14.8791
lwrist -42.8772
lhand -72.2716 461.2
lfingers 7.12502
lthumb -43.7345 282.781
rfemur 139.074 -143.671 170.184
rtibia 125.318
rfoot 42.4619 47.6195
rtoes 4.86149
lfemur -60.253 24.2636 -13.3467
ltibia 118.958
lfoot 15.847 -6.1535
ltoes 13.4005
170
root 12.5919 3.36458 0.961193 -701.208 -69.864 -100.809
lowerback 69.7413 -6.54981 11.3097
upperback 13.9438 -4.50248 -2.21019
thorax -5.48442 -3.73809 -4.93064
lowerneck -2.34615 0.597245 -21.1129
upperneck 9.12005 1.72846 -3.64424
head 3.09425 -0.203481 2.20468
rclavicle 4.05521e-014 6.36111e-015
rhumerus -58.5946 -25.6916 -63.7469
rradius 9.51587
rwrist 71.7515
rhand -32.0213 -337.504
rfingers 7.12502
rthumb -5.26934 -367.419
lclavicle 4.05521e-014 6.36111e-015
lhumerus -421.809 46.057 -318.243
lradius 14.8332
lwrist -41.4634
lhand -72.3051 460.479
lfingers 7.12502
lthumb -43.7658 283.491
rfemur 137.966 -143.426 169.587
rtibia 125.882
rfoot 42.5488 48.8228
rtoes 3.86028
lfemur -60.3986 25.0364 -13.6317
ltibia 119.108
lfoot 15.7452 -5.52699
ltoes 13.543
171
root 12.605 3.26484 1.02062 -700.162 -70.7605 -102.073
lowerback 69.6836 -6.68788 11.5448
upperback 13.9042 -4.50135 -2.17067
thorax -5.51391 -3.73564 -4.97641
lowerneck -2.68923 0.618391 -21.4804
upperneck 9.1948 1.87242 -3.93723
head 3.16816 -0.179395 2.1698
rclavicle -1.25234e-014 2.8625e-014
rhumerus -58.7851 -25.4167 -63.7025
rradius 9.46225
rwrist 72.2615
rhand -32.6888 -336.857
rfingers 7.12502
rthumb -5.91376 -366.755
lclavicle -1.25234e-014 2.8625e-014
lhumerus -421.147 45.3675 -316.116
lradius 14.8577
lwrist -40.1543
lhand -72.4052 459.271
lfingers 7.12502
lthumb -43.8592 284.665
rfemur 136.76 -143.361 169.297
rtibia 126.255
rfoot 43.227 49.7149
rtoes 2.66675
lfemur -60.5962 25.8221 -13.9738
ltibia 119.278
lfoot 15.6195 -5.14393
ltoes 12.6505
172
root 12.6162 3.16796 1.07683 -698.952 -71.6263 -103.483
lowerback 69.5778 -6.80702 11.7633
upperback 13.8681 -4.49205 -2.11577
thorax -5.54089 -3.73044 -5.00285
lowerneck -2.92471 0.663597 -21.69
upperneck 9.19217 2.01231 -4.29174
head 3.20113 -0.146129 2.09261
rclavicle 1.51076e-014 -2.8625e-014
rhumerus -58.9735 -25.1313 -63.6736
rradius 9.33103
rwrist 72.7088
rhand -33.6548 -336.181
rfingers 7.12502
rthumb -6.84638 -366.05
lclavicle 1.51076e-014 -2.8625e-014
lhumerus -420.256 44.4377 -313.622
lradius 14.9422
lwrist -38.3894
lhand -72.4691 458.054
lfingers 7.12502
lthumb -43.9188 285.859
rfemur 135.446 -143.377 169.193
rtibia 126.554
rfoot 44.0383 50.6561
rtoes 1.1064
lfemur -60.8318 26.6434 -14.3423
ltibia 119.446
lfoot 15.5494 -4.91635
ltoes 11.4309
